<svg viewBox="0 0 32 32" xml:space="preserve" xmlns="http://www.w3.org/2000/svg"><g fill="none" stroke="#ffffff" stroke-linecap="round" stroke-linejoin="round" stroke-miterlimit="10" stroke-width="2" class="stroke-ffffff"></g><path d="M29 3H3a1 1 0 0 0-1 1v4a1 1 0 0 0 1 1h22v18H7V12a1 1 0 0 0-2 0v16a1 1 0 0 0 1 1h20a1 1 0 0 0 1-1V9h2a1 1 0 0 0 1-1V4a1 1 0 0 0-1-1zm-1 4H4V5h24v2z" fill="#ffffff" class="fill-000000"></path><path d="M22 17a1 1 0 0 0 1-1v-4a1 1 0 0 0-1-1H10a1 1 0 0 0-1 1v4a1 1 0 0 0 1 1h12zm-11-4h10v2H11v-2z" fill="#ffffff" class="fill-000000"></path></svg>